# xmcd CD database file
#
# Track frame offsets:
#	150
#	24802
#	42245
#	65440
#	82257
#	101942
#	117592
#	128817
#	139767
#	166577
#	181380
#	202160
#	218495
#	235802
#	244087
#	265315
#
# Disc length: 3711 seconds
#
# Revision: 0
# Processed by: cddbd v1.5.1PL0 Copyright (c) Steve Scherf et al.
# Submitted via: CDex 1.51
#
DISCID=e50e7d10
DTITLE=Others - Asian Vision
DYEAR=2005
DGENRE=New Age
TTITLE0=大河悠久
TTITLE1=時の旅人
TTITLE2=feel the moon
TTITLE3=桜・咲くころ
TTITLE4=SAKURA
TTITLE5=僕らの音楽
TTITLE6=ひまわり
TTITLE7=Spicks and Specks
TTITLE8=NATURAL
TTITLE9=少年時代
TTITLE10=ひかりのかけら
TTITLE11=稔りの時
TTITLE12=琥珀の道
TTITLE13=街道をゆく
TTITLE14=神々の詩
TTITLE15=日本 映像の20世紀
EXTD=YEAR: 2005/03/16
EXTT0=
EXTT1=
EXTT2=
EXTT3=
EXTT4=
EXTT5=
EXTT6=
EXTT7=
EXTT8=
EXTT9=
EXTT10=
EXTT11=
EXTT12=
EXTT13=
EXTT14=
EXTT15=
PLAYORDER=
